<svg width="30" height="30" viewBox="0 0 30 30" fill="none" xmlns="http://www.w3.org/2000/svg">
<path fill-rule="evenodd" clip-rule="evenodd" d="M15 0C6.71573 0 0 6.71573 0 15V25C0 27.7614 2.23858 30 5 30H15C23.2843 30 30 23.2843 30 15C30 6.71573 23.2843 0 15 0ZM7.69231 17.3077C8.75439 17.3077 9.61539 16.4467 9.61539 15.3846C9.61539 14.3225 8.75439 13.4615 7.69231 13.4615C6.63022 13.4615 5.76923 14.3225 5.76923 15.3846C5.76923 16.4467 6.63022 17.3077 7.69231 17.3077ZM17.3076 15.3846C17.3076 16.4467 16.4466 17.3077 15.3846 17.3077C14.3225 17.3077 13.4615 16.4467 13.4615 15.3846C13.4615 14.3225 14.3225 13.4615 15.3846 13.4615C16.4466 13.4615 17.3076 14.3225 17.3076 15.3846ZM23.0769 17.3077C24.139 17.3077 24.9999 16.4467 24.9999 15.3846C24.9999 14.3225 24.139 13.4615 23.0769 13.4615C22.0148 13.4615 21.1538 14.3225 21.1538 15.3846C21.1538 16.4467 22.0148 17.3077 23.0769 17.3077Z" fill="white"/>
</svg>
