<svg width="100" height="100" viewBox="0 0 100 100" fill="none" xmlns="http://www.w3.org/2000/svg">
<g filter="url(#filter0_d)">
<rect x="20" y="16" width="60" height="60" rx="30" fill="#FA565E"/>
<path fill-rule="evenodd" clip-rule="evenodd" d="M57.5 51.3812L55.3812 53.5L50 48.1187L44.6187 53.5L42.5 51.3812L47.8812 46L42.5 40.6187L44.6187 38.5L50 43.8812L55.3812 38.5L57.5 40.6187L52.1187 46L57.5 51.3812ZM50 31C41.7125 31 35 37.7125 35 46C35 54.2875 41.7125 61 50 61C58.2875 61 65 54.2875 65 46C65 37.7125 58.2875 31 50 31Z" fill="#F2F6FD"/>
</g>
<defs>
<filter id="filter0_d" x="0" y="0" width="100" height="100" filterUnits="userSpaceOnUse" color-interpolation-filters="sRGB">
<feFlood flood-opacity="0" result="BackgroundImageFix"/>
<feColorMatrix in="SourceAlpha" type="matrix" values="0 0 0 0 0 0 0 0 0 0 0 0 0 0 0 0 0 0 127 0"/>
<feOffset dy="4"/>
<feGaussianBlur stdDeviation="10"/>
<feColorMatrix type="matrix" values="0 0 0 0 0.980392 0 0 0 0 0.337255 0 0 0 0 0.368627 0 0 0 0.2 0"/>
<feBlend mode="normal" in2="BackgroundImageFix" result="effect1_dropShadow"/>
<feBlend mode="normal" in="SourceGraphic" in2="effect1_dropShadow" result="shape"/>
</filter>
</defs>
</svg>
