<svg width="100" height="100" viewBox="0 0 100 100" fill="none" xmlns="http://www.w3.org/2000/svg">
<g filter="url(#filter0_d)">
<rect x="20" y="16" width="60" height="60" rx="30" fill="#FA565E"/>
<path fill-rule="evenodd" clip-rule="evenodd" d="M50 31C41.7157 31 35 37.7157 35 46V56C35 58.7614 37.2386 61 40 61H50C58.2843 61 65 54.2843 65 46C65 37.7157 58.2843 31 50 31ZM42.6923 48.3077C43.7544 48.3077 44.6154 47.4467 44.6154 46.3846C44.6154 45.3225 43.7544 44.4615 42.6923 44.4615C41.6302 44.4615 40.7692 45.3225 40.7692 46.3846C40.7692 47.4467 41.6302 48.3077 42.6923 48.3077ZM52.3076 46.3846C52.3076 47.4467 51.4466 48.3077 50.3846 48.3077C49.3225 48.3077 48.4615 47.4467 48.4615 46.3846C48.4615 45.3225 49.3225 44.4615 50.3846 44.4615C51.4466 44.4615 52.3076 45.3225 52.3076 46.3846ZM58.0769 48.3077C59.139 48.3077 59.9999 47.4467 59.9999 46.3846C59.9999 45.3225 59.139 44.4615 58.0769 44.4615C57.0148 44.4615 56.1538 45.3225 56.1538 46.3846C56.1538 47.4467 57.0148 48.3077 58.0769 48.3077Z" fill="#F2F6FD"/>
</g>
<defs>
<filter id="filter0_d" x="0" y="0" width="100" height="100" filterUnits="userSpaceOnUse" color-interpolation-filters="sRGB">
<feFlood flood-opacity="0" result="BackgroundImageFix"/>
<feColorMatrix in="SourceAlpha" type="matrix" values="0 0 0 0 0 0 0 0 0 0 0 0 0 0 0 0 0 0 127 0"/>
<feOffset dy="4"/>
<feGaussianBlur stdDeviation="10"/>
<feColorMatrix type="matrix" values="0 0 0 0 0.980392 0 0 0 0 0.337255 0 0 0 0 0.368627 0 0 0 0.2 0"/>
<feBlend mode="normal" in2="BackgroundImageFix" result="effect1_dropShadow"/>
<feBlend mode="normal" in="SourceGraphic" in2="effect1_dropShadow" result="shape"/>
</filter>
</defs>
</svg>
