<svg width="120" height="100" viewBox="0 0 120 100" fill="none" xmlns="http://www.w3.org/2000/svg">
<g clip-path="url(#clip0)">
<path d="M59.722 99.8362H53.8008C53.0586 99.8348 52.325 99.6768 51.648 99.3727C50.971 99.0685 50.3658 98.6249 49.8718 98.0709H49.6633C48.5907 98.0979 47.5207 97.9524 46.4942 97.64C45.183 98.3119 43.7977 98.9281 42.3799 99.4933C41.774 99.7272 41.1298 99.8466 40.4803 99.8455H5.24479C4.55543 99.8448 3.87293 99.7085 3.23628 99.4441C2.59962 99.1797 2.02127 98.7925 1.53425 98.3047C1.04722 97.8168 0.661063 97.2377 0.397817 96.6006C0.134571 95.9635 -0.000606663 95.2808 2.04665e-06 94.5914V27.6694C0.00165234 26.7036 0.267633 25.7566 0.769114 24.9312C3.87336 19.8624 6.45869 16.3458 8.4556 14.4833C17.9722 5.6246 30.3892 0.945068 44.3768 0.945068C56.4232 0.945068 64.017 6.27789 68.261 10.7489C70.4664 7.04237 74.8124 4.75356 79.7236 4.75356C81.0435 4.75466 82.3578 4.92595 83.634 5.26322C85.3205 3.4887 88.2255 1.57982 92.9004 1.57982C93.2062 1.57982 93.5259 1.57982 93.8502 1.60762C100.309 1.95511 104.196 6.908 104.252 14.8586C104.252 15.5814 104.252 16.3273 104.173 17.0872C104.173 17.0872 104.173 17.1474 104.173 17.1613C104.173 17.3605 104.136 17.5922 104.113 17.8192V17.8655C104.09 18.1111 104.062 18.3289 104.034 18.5744C103.946 19.2879 103.83 20.0153 103.686 20.7474C103.686 20.7474 103.686 20.7891 103.686 20.8076C103.645 21.0207 103.598 21.2339 103.557 21.4424L103.534 21.5443C103.492 21.7435 103.446 21.9567 103.395 22.1698C103.223 22.8833 103.042 23.5597 102.843 24.2408L102.811 24.3335C102.755 24.5234 102.7 24.7088 102.639 24.8941L102.602 25.0053C102.547 25.1814 102.486 25.3528 102.431 25.5242V25.5984C102.269 26.0617 102.116 26.4648 101.968 26.8586V26.9142C101.903 27.081 101.824 27.2709 101.745 27.4609L101.69 27.586C101.625 27.7482 101.56 27.8964 101.49 28.0493L101.43 28.179C101.361 28.3319 101.296 28.4756 101.231 28.6099L101.166 28.7443C101.087 28.9065 101.013 29.0547 100.939 29.2076L100.911 29.2678C100.791 29.4995 100.693 29.6756 100.596 29.8516L100.554 29.9211C100.48 30.0555 100.392 30.2084 100.304 30.352L100.216 30.5003L99.9846 30.8617L99.8826 31.0192L99.6463 31.3574L99.5444 31.5011L99.2479 31.8902L99.1506 31.9875C98.9652 32.2146 98.8309 32.3721 98.6873 32.5157L98.6039 32.6038C98.4788 32.7428 98.3583 32.8632 98.2425 32.9744L98.0525 33.1551L97.7097 33.4516L97.4919 33.6231C97.3853 33.7065 97.251 33.8084 97.112 33.9011C96.973 33.9937 96.9127 34.0354 96.8247 34.0864C96.7367 34.1373 96.5328 34.2624 96.3614 34.3505L96.0973 34.4802C95.7983 34.6233 95.4885 34.7426 95.1707 34.837C94.5311 35.0302 93.875 35.1636 93.2108 35.2354C92.6998 35.2883 92.1863 35.3146 91.6726 35.3142C90.3827 35.304 89.0967 35.1721 87.8317 34.9204C87.3555 35.5746 86.7337 36.1092 86.0154 36.4817C87.3776 38.7983 88.8927 42.3798 89.6154 47.6014C94.0587 45.9474 98.2332 45.1088 102.037 45.1088C109.381 45.1088 115.232 48.2084 118.962 54.0694C119.541 54.9768 119.888 56.0121 119.973 57.0847C120.059 58.1574 119.88 59.2347 119.453 60.2223C117.966 63.6555 114.987 64.2161 111.54 64.8555C109.158 65.254 106.808 65.8285 104.511 66.5744C104.724 69.9937 102.63 75.3775 98.8633 78.6578C98.678 81.6323 97.8811 84.0926 96.4911 85.9736C95.1614 87.7713 92.9838 89.3234 90.0046 90.6068C89.7081 93.9937 89.0085 95.4532 88.3552 96.4354C87.7168 97.3964 86.8473 98.1816 85.8265 98.7192C84.8057 99.2567 83.6663 99.5293 82.5127 99.5119C81.6719 99.5036 80.8369 99.3724 80.034 99.1227C79.2322 99.5942 78.3186 99.8422 77.3884 99.8408L59.722 99.8362Z" fill="#BFE3FF"/>
<path d="M118.184 54.5651C114.635 49.0053 109.052 46.0354 102.042 46.0354C97.3159 46.0354 92.604 47.3929 88.8418 48.8941C88.1515 42.5466 86.2982 38.4786 84.6349 36.0045C85.2217 35.864 85.7725 35.6016 86.2514 35.2345C86.7304 34.8673 87.1267 34.4035 87.4148 33.8732C88.8207 34.1875 90.2554 34.3552 91.6959 34.3736C92.174 34.377 92.652 34.3538 93.1275 34.3041C93.7352 34.2402 94.3356 34.1192 94.9206 33.9427C95.1938 33.86 95.4603 33.7562 95.7175 33.6323L95.9445 33.5165C96.0881 33.4424 96.2318 33.3636 96.3476 33.2895L96.6024 33.1227C96.7183 33.0439 96.8387 32.9559 96.936 32.8817L97.1306 32.7242C97.2372 32.6408 97.3437 32.5435 97.441 32.4555L97.6032 32.3026C97.7144 32.196 97.821 32.0895 97.9414 31.9551L98.0109 31.8856C98.1314 31.7512 98.2565 31.6076 98.4186 31.4223L98.4789 31.3482C98.5623 31.2416 98.6457 31.135 98.7476 30.996L98.8495 30.8524L99.0673 30.5373L99.1646 30.3891C99.2341 30.2825 99.3036 30.176 99.3823 30.0462L99.4657 29.9072C99.5491 29.7682 99.6372 29.6246 99.7113 29.4856C99.7243 29.4685 99.7352 29.4498 99.7437 29.43C99.841 29.2632 99.9291 29.0918 100.04 28.8833L100.073 28.8184C100.147 28.6794 100.216 28.5358 100.29 28.3875L100.355 28.2532C100.42 28.1188 100.48 27.9844 100.545 27.8408L100.606 27.7111C100.67 27.5675 100.731 27.4238 100.795 27.2756L100.851 27.1458L101.064 26.6223L101.087 26.562C101.236 26.1821 101.384 25.7883 101.551 25.3482V25.2694C101.611 25.1026 101.667 24.9358 101.722 24.769L101.759 24.6532L101.931 24.1111L101.958 24.0184C102.153 23.3605 102.329 22.698 102.496 21.9983C102.547 21.7898 102.593 21.586 102.635 21.3821C102.635 21.3497 102.635 21.2895 102.635 21.2895C102.681 21.0856 102.723 20.8771 102.76 20.6686V20.613C102.894 19.9041 103.01 19.1953 103.094 18.5095C103.126 18.2825 103.149 18.0462 103.172 17.8146V17.7729C103.172 17.5505 103.214 17.3095 103.233 17.101C103.233 17.101 103.233 17.0686 103.233 17.0593C103.288 16.3273 103.311 15.6045 103.307 14.9142C103.256 7.50105 99.6928 2.89564 93.7808 2.57595C93.475 2.57595 93.1739 2.55279 92.882 2.55279C88.2488 2.55279 85.4688 4.5219 83.9121 6.36128C82.5471 5.94357 81.128 5.72968 79.7005 5.72653C74.5206 5.72653 70.1978 8.38136 68.4511 12.403C68.1685 12.0787 67.8719 11.7497 67.5569 11.4207C63.475 7.04699 56.099 1.8717 44.377 1.8717C30.6302 1.8717 18.431 6.46784 9.09047 15.1597C7.15379 16.9667 4.63333 20.4045 1.56151 25.4176C1.1452 26.0948 0.925424 26.8745 0.926764 27.6694V94.5914C0.92799 95.7363 1.38333 96.8339 2.19287 97.6434C3.00242 98.453 4.10004 98.9083 5.24491 98.9095H40.4804C41.0145 98.9105 41.5441 98.8115 42.0418 98.6176C43.5403 98.0392 45.0052 97.3772 46.4295 96.6346L46.7492 96.7505C47.6927 97.0394 48.6771 97.1725 49.6634 97.1443H50.3075C50.7086 97.6946 51.2342 98.1422 51.8413 98.4506C52.4484 98.759 53.1199 98.9194 53.8009 98.9188H77.4024C78.3036 98.9172 79.1817 98.6337 79.9136 98.108C80.7507 98.4086 81.6327 98.5653 82.5221 98.5713C83.5268 98.5899 84.5201 98.3557 85.4107 97.8902C86.3012 97.4247 87.0605 96.7428 87.6186 95.9072C88.2534 94.9806 88.9113 93.498 89.1569 89.9536C92.2426 88.7072 94.4619 87.1736 95.7684 85.4223C97.3762 83.2447 97.8858 80.474 97.9831 78.2084C102.13 74.8169 104.104 68.942 103.543 65.9582C106.175 64.9296 109.344 64.3366 111.419 63.9427C114.741 63.3173 117.364 62.8261 118.656 59.8424C119.016 58.9912 119.16 58.065 119.078 57.1448C118.996 56.2247 118.689 55.3389 118.184 54.5651Z" fill="white"/>
<path d="M114.543 56.8864C111.786 52.5498 107.593 50.3536 102.033 50.3536C95.1898 50.3536 88.1102 53.7498 84.7836 55.5845C85.0338 44.2146 81.8832 39.0671 79.9002 36.9683C78.5658 35.5783 77.0554 34.7444 75.7581 34.7444C75.4661 34.7311 75.1744 34.7786 74.9017 34.8839C74.6289 34.9892 74.381 35.1499 74.1736 35.3559C74.0111 35.5314 73.8862 35.7383 73.8066 35.9637C73.7269 36.1892 73.6941 36.4286 73.7102 36.6671C74.2662 48.9683 71.6485 57.8594 69.8693 60.5745C68.2199 63.081 68.294 64.698 68.3496 66C68.3834 66.4509 68.3725 66.904 68.3172 67.3528C68.2384 67.8718 67.0431 68.9606 65.5373 69.966C64.7825 65.5656 63.2913 61.3239 61.1265 57.4193C61.0205 57.2396 60.8695 57.0907 60.6882 56.9875C60.5069 56.8843 60.3018 56.8303 60.0933 56.8308C59.8964 56.8312 59.7026 56.8789 59.528 56.9698L53.8199 60.0231C53.5411 60.1763 53.3333 60.4323 53.2407 60.7366L46.884 81.7528C46.8596 81.8343 46.8441 81.9182 46.8377 82.003C46.0361 91.9644 47.3334 92.3907 48.1072 92.6594C48.6149 92.8013 49.1418 92.8623 49.6685 92.8401C50.8431 92.8155 52.0155 92.7274 53.1805 92.576C53.3134 93.2735 53.5231 93.9541 53.806 94.6054H59.3658L59.5975 94.4478C59.6346 94.5034 59.6716 94.5544 59.7133 94.6054H77.3936C77.4606 93.7283 77.4792 92.8482 77.4492 91.9691C79.1218 93.0625 81.267 94.2857 82.5133 94.2857C82.8027 94.2989 83.0906 94.2382 83.3501 94.1093C83.6095 93.9805 83.8317 93.7876 83.9959 93.549C84.7743 92.3768 84.9226 88.9853 84.9226 86.8864C86.7759 86.3351 90.7604 84.9498 92.2848 82.888C93.8091 80.8262 93.7442 77.5737 93.6098 75.9382C98.016 73.8208 99.633 68.0386 99.2763 66.8293C99.2114 66.593 99.0261 65.9444 97.2608 64.7119C100.564 61.6216 106.991 60.4123 110.577 59.7359C113.357 59.2123 114.283 59.0362 114.649 58.1606C114.74 57.9562 114.777 57.7325 114.758 57.5099C114.74 57.2873 114.666 57.0729 114.543 56.8864Z" fill="black"/>
<path d="M60.0885 58.0308C62.4631 62.3341 63.9918 67.0522 64.5919 71.9304C64.5919 71.9304 69.1973 69.4285 69.4939 67.5289C69.7904 65.6293 68.8267 64.3274 70.8607 61.2231C72.8946 58.1189 75.4568 48.9034 74.9008 36.6069C74.7989 34.4015 84.7093 36.7042 83.5047 57.7204C83.5047 57.7204 104.901 43.9598 113.532 57.5212C114.232 58.6239 100.119 58.7212 95.4166 64.9343C95.4166 64.9343 97.9186 66.4355 98.1178 67.1397C98.317 67.8439 96.8159 73.6262 92.3124 75.1459C92.3124 75.1459 93.012 79.8486 91.3116 82.1513C89.6112 84.454 83.7085 85.9505 83.7085 85.9505C83.7085 85.9505 83.8058 91.6586 83.0043 92.8586C82.2027 94.0586 76.1008 89.5551 76.1008 89.5551C76.2703 91.2284 76.3044 92.9127 76.2027 94.5914H69.8969C69.8969 94.5914 68.595 93.359 68.2939 92.3582C68.2939 92.3582 67.7935 93.6231 67.2931 94.5914H61.3904C60.729 94.0892 60.2676 93.3684 60.0885 92.5575C59.1528 93.3269 58.1477 94.0079 57.0861 94.5914H55.1356C54.5775 93.5459 54.2609 92.3886 54.2089 91.2046C54.2089 91.2046 49.6313 91.8949 48.4545 91.5057C47.2776 91.1165 47.9912 82.1003 47.9912 82.1003L54.3479 61.0841L60.0885 58.0308Z" fill="#E50B14"/>
<path d="M91.3116 82.1513C93.012 79.8347 92.3124 75.1459 92.3124 75.1459L92.4514 75.095C91.6082 74.5668 88.7448 72.8571 86.7109 72.7413C84.6935 72.72 82.6781 72.8751 80.6877 73.2046C80.6877 73.2046 75.8877 75.651 73.812 77.1011C73.1912 77.5367 74.6182 79.6818 76.7217 79.8811C78.3042 79.9929 79.8928 79.9929 81.4753 79.8811C81.4753 79.8811 81.1232 83.1243 79.4738 84.1807C77.8244 85.2371 75.0676 84.1807 75.0676 84.1807C75.0676 84.1807 74.419 87.183 72.8668 88.3876C71.3147 89.5923 67.6128 85.8857 67.6128 85.8857C67.6128 85.8857 66.7139 88.888 64.9626 89.0872C63.2112 89.2865 61.8583 86.1359 61.8583 86.1359C61.8583 86.1359 58.2537 88.1838 56.9055 87.9336C55.5572 87.6834 54.9039 82.1791 54.9039 82.1791C54.9039 82.1791 51.4151 87.8316 47.9541 90.0556C48.056 90.8525 48.2275 91.4085 48.4962 91.4965C49.673 91.8857 54.2506 91.1954 54.2506 91.1954C54.3026 92.3794 54.6192 93.5367 55.1773 94.5822H57.1278C58.1894 93.9986 59.1945 93.3177 60.1302 92.5483C60.3093 93.3591 60.7707 94.08 61.4321 94.5822H67.3348C67.8352 93.6139 68.3356 92.349 68.3356 92.349C68.6367 93.3498 69.9387 94.5822 69.9387 94.5822H76.2444C76.3461 92.9035 76.312 91.2192 76.1425 89.5459C76.1425 89.5459 82.2491 94.0494 83.046 92.8494C83.8429 91.6494 83.7502 85.9413 83.7502 85.9413C83.7502 85.9413 89.6112 84.4494 91.3116 82.1513Z" fill="#FFD345"/>
<g style="mix-blend-mode:multiply">
<path d="M76.3136 79.2464C76.3136 79.2464 67.0472 84.8386 65.1569 80.78C63.2665 76.7213 60.0928 68.7336 60.0928 68.7336L53.1429 66.5421L52.624 66.8618L48.0233 82.0726C48.0233 82.0726 47.3005 91.0935 48.4866 91.478C49.6727 91.8626 54.241 91.1769 54.241 91.1769C54.293 92.3609 54.6096 93.5182 55.1677 94.5637H57.1182C58.1798 93.9802 59.1849 93.2992 60.1206 92.5298C60.2997 93.3407 60.7611 94.0615 61.4225 94.5637H67.3252C67.8256 93.5954 68.326 92.3305 68.326 92.3305C68.6271 93.3313 69.929 94.5637 69.929 94.5637H76.2348C76.3365 92.885 76.3024 91.2007 76.1329 89.5275C76.1329 89.5275 82.2395 94.0309 83.0364 92.8309C83.8333 91.6309 83.7406 85.9228 83.7406 85.9228C83.7406 85.9228 89.6433 84.4217 91.3437 82.1236C91.3437 82.1236 86.275 78.0186 84.3383 77.0873C82.4016 76.156 76.3136 79.2464 76.3136 79.2464Z" fill="#DBD1E8"/>
</g>
<path d="M91.4644 71.634C91.4644 71.634 92.7617 72.7506 93.5122 72.8201C94.2628 72.8896 97.4412 69.7714 98.2103 66.5699L97.2837 65.7683L90.5516 62.0618L86.7107 61.3204L81.6142 63.4378L77.1709 67.1444L75.452 68.9977L73.1678 71.1011L72.6489 71.9073L73.14 72.834L75.8597 74.2239L78.1763 74.6872L81.0304 72.834L84.3292 72.6301L85.5663 71.3328L86.4651 70.698C88.1638 70.8027 89.8429 71.1171 91.4644 71.634Z" fill="#FFD345"/>
<g style="mix-blend-mode:multiply">
<path d="M96.3709 71.8934C96.408 69.9243 87.7346 68.1405 86.8312 68.0062C85.9277 67.8718 82.7308 70.3228 79.8813 71.8007C77.0319 73.2787 72.6396 71.8934 72.6396 71.8934V74.21L74.9563 76.2116L80.669 73.2231L87.7578 72.922L92.3122 75.1506C93.9892 74.5455 95.4171 73.3996 96.3709 71.8934Z" fill="#DBD1E8"/>
</g>
<path d="M83.5046 57.7297C83.5046 57.4239 83.5371 57.1274 83.551 56.8309L83.2544 57.1784L81.0073 59.495C81.0073 59.495 84.8251 59.9583 85.7193 61.5475C85.7193 61.5475 88.9301 60.5652 95.588 64.7444C100.444 58.749 114.223 58.6332 113.532 57.5444C104.901 43.9691 83.5046 57.7297 83.5046 57.7297Z" fill="#FFD345"/>
<g style="mix-blend-mode:multiply">
<path d="M111.23 54.7783C110.975 57.5582 101.921 57.9289 97.6172 58.6656C93.313 59.4023 89.0365 61.6957 88.9624 61.7328C91.3179 62.3686 93.5552 63.3809 95.5879 64.7304C100.443 58.7351 114.223 58.6192 113.532 57.5304C112.89 56.5151 112.116 55.5896 111.23 54.7783Z" fill="#DBD1E8"/>
</g>
<path d="M98.1176 67.1396C98.1203 67.3956 98.1017 67.6513 98.062 67.9041C98.1272 67.6549 98.146 67.3957 98.1176 67.1396Z" fill="#8EFF8A"/>
<path d="M69.9898 31.7143C69.9342 31.5058 69.8925 31.3343 69.86 31.2185C69.5589 30 69.7488 26.7336 69.86 24.9822C69.86 24.6857 69.8971 24.4077 69.9064 24.1668C69.9759 22.8648 68.4099 18.5096 64.4716 14.3583C60.9365 10.6517 54.5797 6.18994 44.3913 6.18994C31.7427 6.18994 20.5581 10.383 12.0469 18.3197C9.86932 20.349 6.83457 25.0888 5.25928 27.6695V94.5915H40.4809C44.2338 93.1367 50.0902 90.2131 53.5651 85.2417C57.911 79.0239 59.8523 70.0031 60.7836 65.671C60.9782 64.7722 61.1311 64.0633 61.2469 63.6602C61.4462 62.9421 62.8454 61.5197 64.1936 60.1436C66.7048 57.5907 69.8276 54.4123 71.2268 50.5297C72.6631 46.5544 72.2461 40.2208 69.9898 31.7143Z" fill="black"/>
<path d="M5.24512 30.0093C5.24512 30.0093 9.94782 21.9012 12.8528 19.2001C15.7579 16.4989 26.0621 7.39001 44.3586 7.39001C62.6552 7.39001 68.7756 22.2163 68.6783 24.102C68.581 25.9877 68.2799 29.9074 68.6783 31.5151C69.0768 33.1228 72.2783 44.0248 70.0683 50.1313C67.8582 56.2379 60.7602 60.8387 60.0606 63.3406C59.361 65.8425 57.6606 77.2402 52.5548 84.556C47.449 91.8719 36.6397 94.5962 36.6397 94.5962H5.24512V30.0093Z" fill="#E50B14"/>
<g style="mix-blend-mode:multiply">
<path d="M31.7656 86.3212C30.51 85.3065 26.3123 75.4517 26.3123 75.4517C26.3123 75.4517 9.38261 81.2478 8.97952 81.2478C8.72006 81.2478 7.89535 89.1242 7.34863 94.5914H36.6676C36.6676 94.5914 47.4768 91.8578 52.5826 84.5513C53.0042 83.949 53.3981 83.3142 53.7733 82.6656C38.5255 93.1459 35.4027 89.254 31.7656 86.3212Z" fill="#DBD1E8"/>
</g>
<path d="M69.9954 38.6591C71.7814 38.3704 73.1296 37.5204 73.0068 36.7604C72.8839 36.0004 71.3366 35.6183 69.5506 35.9069C67.7647 36.1956 66.4165 37.0456 66.5393 37.8056C66.6621 38.5656 68.2095 38.9477 69.9954 38.6591Z" fill="#FF878C"/>
<path d="M60.4404 31.3159L60.5007 31.2371C60.5613 31.1535 60.6262 31.0731 60.6953 30.9962C60.774 30.9035 60.8806 30.8016 60.9964 30.6811C61.1122 30.5607 61.2559 30.4356 61.4227 30.3105L61.6775 30.1205L61.974 29.9352C62.1865 29.8078 62.4098 29.6993 62.6412 29.6109C62.8914 29.5164 63.1507 29.4481 63.4149 29.407C63.6813 29.3629 63.9517 29.3489 64.2211 29.3653C64.481 29.3893 64.7384 29.4358 64.9902 29.5043C65.2231 29.5782 65.4507 29.668 65.6713 29.773C65.8705 29.8842 66.0698 29.9908 66.2412 30.102L66.7045 30.4541C66.8339 30.5501 66.9548 30.657 67.0659 30.7738L67.3254 31.0332L67.5478 31.2603L67.2698 31.1027L66.9547 30.9267C66.8235 30.8425 66.6838 30.7726 66.5377 30.7182L66.0373 30.5143C65.8566 30.4634 65.6621 30.4217 65.4675 30.3707C65.2684 30.3351 65.0672 30.3134 64.8651 30.3058C64.6678 30.3117 64.4711 30.3318 64.2767 30.3661C64.0904 30.4046 63.9098 30.4669 63.7393 30.5514C63.5747 30.6242 63.4193 30.7159 63.276 30.8248C63.1429 30.9266 63.0188 31.0397 62.9053 31.163L62.7478 31.3344L62.6134 31.5151C62.53 31.6217 62.4651 31.7421 62.4049 31.8348C62.3548 31.9184 62.31 32.0051 62.2705 32.0943C62.2472 32.1423 62.2271 32.1918 62.2103 32.2425L62.1825 32.3074L60.4404 31.3159Z" fill="black"/>
<path d="M44.6966 47.7405C44.53 47.7399 44.3678 47.6873 44.2324 47.5901C44.0971 47.493 43.9953 47.3561 43.9414 47.1984L43.2557 45.1783C43.2083 45.04 43.1996 44.8913 43.2307 44.7484C43.2617 44.6055 43.3312 44.4738 43.4318 44.3675C46.4619 41.1799 47.1383 39.271 48.1576 36.417V36.366C48.6673 34.9343 51.4889 27.7992 57.1229 27.7992C57.3267 27.7992 57.5352 27.7992 57.7437 27.827C63.0626 28.332 64.2673 36.3058 64.3136 36.6301C64.342 36.8281 64.2957 37.0295 64.1839 37.1953L62.1314 40.2069C62.0658 40.3027 61.9805 40.3833 61.8812 40.4432L50.4696 47.2262C50.3627 47.2907 50.242 47.3288 50.1175 47.3374L44.7569 47.7405H44.6966Z" fill="black"/>
<path d="M44.0156 44.9004C47.1847 41.5691 47.8844 39.5676 48.9361 36.6162C49.9878 33.6649 52.9392 28.156 57.6928 28.61C62.4465 29.0641 63.5446 36.7413 63.5446 36.7413L61.4921 39.7483L50.062 46.5405L44.6967 46.9205L44.0156 44.9004Z" fill="#FFD1D1"/>
<path d="M52.884 59.8656C52.706 59.8665 52.5301 59.8269 52.3697 59.7498L49.3303 58.3181C49.1038 58.2086 48.9163 58.0323 48.7929 57.8131L46.1566 53.0548L43.1126 49.5938C42.9327 49.3906 42.827 49.1325 42.8127 48.8616C42.7984 48.5906 42.8763 48.3228 43.0338 48.1019L44.4794 46.0586C44.5737 45.9256 44.6943 45.8134 44.8338 45.7289C44.9733 45.6444 45.1286 45.5895 45.2902 45.5675L49.6593 44.9606L54.4732 42.315C54.6506 42.2173 54.8498 42.1663 55.0523 42.1668C55.1715 42.1678 55.2899 42.1849 55.4045 42.2177L59.9404 43.6077C60.1245 43.6618 60.2929 43.7593 60.4315 43.892C60.5702 44.0246 60.675 44.1886 60.7371 44.3701C60.7993 44.5517 60.817 44.7455 60.7889 44.9353C60.7607 45.1251 60.6874 45.3053 60.5751 45.461C58.0909 49.0193 57.0813 53.4014 57.7581 57.688C57.7929 57.8438 57.7964 58.0049 57.7686 58.1621C57.7407 58.3193 57.682 58.4694 57.5959 58.6038C57.5098 58.7382 57.3979 58.8542 57.2667 58.9451C57.1355 59.036 56.9876 59.1001 56.8315 59.1335L53.1249 59.8656C53.0448 59.873 52.9641 59.873 52.884 59.8656Z" fill="black"/>
<path d="M56.5855 57.9336C55.8188 53.3176 56.8971 48.5851 59.5878 44.7568L55.0519 43.3668L50.0388 46.105L45.4658 46.7537L44.0156 48.8155L47.1477 52.3599L49.8442 57.2294L52.8882 58.6657L56.5855 57.9336Z" fill="#303242"/>
<path d="M55.001 57.5073C53.6139 57.4944 52.2811 56.9659 51.262 56.0247C50.1084 54.9776 48.8389 52.6888 47.8149 50.8448C47.4262 50.0967 46.993 49.3727 46.5176 48.6764C46.4107 48.6027 46.3239 48.5036 46.2648 48.3879C46.2058 48.2722 46.1764 48.1437 46.1794 48.0139C46.1803 47.8731 46.2185 47.735 46.2901 47.6137C46.3617 47.4924 46.4642 47.3923 46.5871 47.3235L47.4165 46.8602C47.536 46.7905 47.6719 46.7538 47.8103 46.7537H47.8381C48.9024 46.8182 49.9148 47.2355 50.7153 47.9398C51.0506 47.8235 51.4029 47.764 51.7578 47.7637C52.3436 47.7675 52.9177 47.9274 53.4211 48.227C55.0103 49.1537 55.5987 50.21 55.7377 52.3969C55.7701 52.8324 55.7887 53.2541 55.8072 53.6525C55.8582 54.6811 55.9138 55.8486 56.1547 56.1405C56.2446 56.2471 56.305 56.3754 56.3298 56.5126C56.3546 56.6498 56.343 56.7911 56.2961 56.9224C56.2492 57.0537 56.1686 57.1704 56.0625 57.2609C55.9564 57.3513 55.8284 57.4123 55.6914 57.4378C55.4639 57.4823 55.2328 57.5056 55.001 57.5073Z" fill="black"/>
<path d="M47.8105 47.5552C47.8105 47.5552 49.5804 47.6247 50.5163 48.9451C50.8923 48.713 51.3254 48.5901 51.7673 48.5901C52.2091 48.5901 52.6423 48.713 53.0183 48.9451C54.3851 49.7467 54.8159 50.5482 54.9503 52.4849C55.0847 54.4216 55.0198 56.0478 55.5526 56.6872C54.8745 56.7724 54.1859 56.7056 53.5368 56.4917C52.8876 56.2777 52.2943 55.9219 51.7997 55.4502C50.002 53.8239 47.6298 48.4448 46.9766 48.037L47.8105 47.5552Z" fill="#E8A8A8"/>
<path d="M53.0828 62.1035C52.9481 62.1032 52.8135 62.0955 52.6797 62.0803C50.3955 61.7838 48.1623 59.6293 46.7075 56.3166C45.3175 53.1753 40.1005 47.2726 40.0496 47.2124C39.8819 47.0259 39.7766 46.7917 39.7484 46.5426C39.7201 46.2934 39.7704 46.0417 39.892 45.8224C40.0125 45.6046 40.5083 44.8958 41.8797 44.8958C42.5609 44.9178 43.2353 45.0396 43.8812 45.2571C46.8326 46.1838 48.2828 48.6347 49.6866 51.0116C50.7152 52.7629 51.6928 54.417 53.231 55.5151C53.7726 55.9471 54.4345 56.2012 55.126 56.2425C56.6828 56.2425 57.665 54.4309 57.6743 54.417C57.7763 54.224 57.9289 54.0625 58.1159 53.9498C58.3029 53.8371 58.517 53.7776 58.7353 53.7776C58.8516 53.776 58.9674 53.7932 59.0781 53.8286C59.3446 53.9052 59.5758 54.0728 59.7315 54.3022C59.8872 54.5316 59.9577 54.8082 59.9307 55.0842C59.4766 59.9815 55.177 62.1035 53.0828 62.1035Z" fill="black"/>
<path d="M40.9438 46.4107C40.9438 46.4107 46.3369 52.4756 47.8103 55.83C49.2836 59.1844 51.2805 60.681 52.8326 60.8848C54.3848 61.0887 58.3369 59.2817 58.7354 54.9775C58.7354 54.9775 56.4836 59.3142 52.5315 56.4972C48.5794 53.6802 48.0188 47.8146 43.5245 46.4107C41.3238 45.7204 40.9438 46.4107 40.9438 46.4107Z" fill="#484B63"/>
<path d="M56.8313 56.9745C55.7888 57.5768 54.3386 57.7853 52.5317 56.5111C49.066 54.037 48.2089 49.2231 45.0166 47.1289C45.188 47.8841 45.4429 48.7876 45.4429 48.7876C45.4429 48.7876 48.751 54.542 49.8398 55.3436C50.9286 56.1451 53.7456 59.166 56.8313 56.9745Z" fill="#696D91"/>
<path d="M59.7361 64.3691C59.7361 64.3691 57.818 72.1436 55.6867 71.8934C55.6867 71.8934 54.2968 75.3776 51.8134 73.844C51.8134 73.844 51.2805 76.8463 48.8805 76.712C46.4805 76.5776 42.9408 73.9089 42.9408 73.9089C42.9408 73.9089 42.0744 75.044 41.0041 75.0116C39.9338 74.9792 36.9361 69.5722 36.9361 69.5722C36.7026 69.832 36.4167 70.0394 36.0973 70.1807C35.7779 70.322 35.4322 70.3942 35.0829 70.3923C33.8829 70.3923 31.6775 66.2224 31.6775 66.2224C31.6775 66.2224 27.1091 66.8896 26.3261 66.088C25.5431 65.2865 24.4728 61.4178 24.4728 61.4178L19.0705 60.6208L17.9863 69.0533L26.0064 73.1305C26.0064 73.1305 26.53 74.2193 28.3971 72.7367C28.3971 72.7367 29.5971 77.5923 31.33 78.4587C33.0628 79.3251 33.5354 78.4587 33.5354 78.4587C33.5354 78.4587 35.3886 82.6656 36.7369 83.3328C38.0852 84 40.1377 83.0641 40.1377 83.0641C40.1377 83.0641 42.6952 85.668 46.1608 85.668C47.5508 85.668 49.0334 82.9992 49.0334 82.9992C49.0334 82.9992 50.8311 83.2633 51.6327 82.9992C52.4342 82.7351 54.5006 78.2595 54.5006 78.2595C54.5006 78.2595 54.9083 78.8062 55.9693 78.1668C58.1377 72.8293 59.2126 67.2371 59.8242 64.5266L59.7361 64.3691Z" fill="#FFD345"/>
<path d="M11.7038 94.5914C16.6752 92.4138 26.3123 87.1783 26.3123 79.1953C26.3123 63.4424 20.2891 50.3119 11.9772 47.9675C9.84587 47.3314 7.63996 46.9794 5.41655 46.9204H5.24512V94.5914H11.7038Z" fill="black"/>
<path d="M66.2969 70.7815L66.2321 70.8464C66.1811 70.8974 66.1209 70.9483 66.0375 71.0178C65.8192 71.1947 65.5918 71.3602 65.3564 71.5136C65.0292 71.7238 64.6904 71.9157 64.3417 72.0881C63.9495 72.2807 63.5474 72.4523 63.1371 72.6024C62.7247 72.7506 62.3031 72.8804 61.9047 72.9869C61.5062 73.0935 61.1309 73.1723 60.8112 73.2279C60.4915 73.2835 60.2182 73.3205 60.0329 73.353L59.7363 73.3947L60.019 73.302C60.1996 73.2371 60.4823 73.1676 60.7603 73.0472C61.0383 72.9267 61.4089 72.7923 61.7749 72.6302C62.141 72.468 62.5209 72.2688 62.8869 72.0557C63.2495 71.8461 63.6006 71.6172 63.9386 71.37C64.2224 71.1609 64.4946 70.9367 64.7541 70.6981C64.9313 70.5355 65.0984 70.3622 65.2545 70.1792L65.3703 70.0356L65.4074 69.9846L66.2969 70.7815Z" fill="black"/>
<path d="M86.3585 81.9011C85.5612 81.7059 84.7741 81.4708 84.0002 81.1969C83.6111 81.0579 83.2265 80.9096 82.8466 80.7336C82.6566 80.6502 82.4667 80.5621 82.2813 80.4648C82.0901 80.3707 81.9044 80.2655 81.7253 80.1498L81.9616 80.2008C81.317 80.332 80.6659 80.4294 80.0111 80.4926C79.3518 80.5522 78.6893 80.5676 78.028 80.539C77.3484 80.5198 76.6735 80.4203 76.0172 80.2425C75.3086 80.0615 74.6529 79.7154 74.1037 79.2324C73.8184 78.9688 73.5843 78.6546 73.4134 78.3058C73.3258 78.1315 73.2575 77.9481 73.2095 77.7591V77.6896C73.2095 77.7915 73.1863 77.5413 73.2095 77.5645V77.4811C73.207 77.4456 73.207 77.41 73.2095 77.3745C73.2225 77.3016 73.2427 77.2303 73.2697 77.1614C73.3251 77.0356 73.3985 76.9185 73.4875 76.8139C73.7306 76.5355 74.0041 76.2853 74.303 76.0679C74.5763 75.8641 74.8497 75.6787 75.1277 75.4934C76.2241 74.7835 77.3612 74.1383 78.5331 73.5614C79.1215 73.2695 79.6867 72.9822 80.3354 72.7274L80.4651 72.6811L80.5624 72.6486H80.6226L80.8636 72.593C81.0489 72.5606 81.2389 72.5282 81.3964 72.5096C81.7346 72.4679 82.0589 72.4355 82.3879 72.417C83.0458 72.3706 83.6991 72.3428 84.3524 72.3567C85.0056 72.3706 85.6589 72.3892 86.3122 72.454C86.9724 72.5053 87.6276 72.6076 88.2721 72.7598C88.6019 72.8378 88.9256 72.94 89.2404 73.0656C89.5449 73.194 89.8418 73.3394 90.13 73.5011C91.2701 74.1254 92.331 74.8846 93.2898 75.7621C92.7524 75.41 92.1917 75.0903 91.6311 74.7892C91.0705 74.488 90.4914 74.21 89.9076 73.9737C89.6249 73.8625 89.3053 73.7328 89.0273 73.6494C88.735 73.5601 88.436 73.495 88.1331 73.4548C87.5187 73.3701 86.8998 73.3222 86.2798 73.3112C85.0173 73.2878 83.7546 73.3435 82.4991 73.478C82.184 73.5104 81.8736 73.5521 81.5724 73.6031C81.4149 73.6262 81.2898 73.654 81.1555 73.6818C81.0952 73.6818 81.0072 73.7235 80.9331 73.7421H80.8728L80.7802 73.7791C80.2381 74.0108 79.6543 74.3027 79.0983 74.5946C78.5423 74.8865 77.9771 75.1923 77.4257 75.5212C76.8744 75.8502 76.3277 76.1513 75.8041 76.4896C75.54 76.661 75.2806 76.8324 75.0396 77.0131C74.8136 77.169 74.6054 77.3492 74.4188 77.5506C74.3863 77.583 74.3632 77.634 74.3725 77.6015C74.3795 77.5695 74.3795 77.5363 74.3725 77.5042C74.375 77.4873 74.375 77.4702 74.3725 77.4533V77.532C74.3725 77.5598 74.3447 77.3143 74.3725 77.4208V77.4672C74.4029 77.5892 74.4431 77.7085 74.4929 77.8239C74.5929 78.0568 74.7377 78.2678 74.9192 78.4448C75.3274 78.8289 75.8214 79.1101 76.3601 79.2648C76.9407 79.4471 77.5384 79.5698 78.1439 79.6309C78.7597 79.6915 79.3784 79.7178 79.9972 79.7096C80.6258 79.7036 81.2536 79.665 81.8782 79.5938H82.0219L82.1145 79.6679C82.76 80.136 83.447 80.5439 84.167 80.8865C84.8667 81.2293 85.608 81.5629 86.3585 81.9011Z" fill="black"/>
<path d="M83.4536 72.4262L83.5324 72.3474L83.7501 72.1435C83.9401 71.9675 84.2135 71.7219 84.5609 71.4439C84.9629 71.1153 85.4013 70.8339 85.8675 70.6053C86.0079 70.5378 86.1535 70.4821 86.303 70.4385H86.3355H86.3772H86.4467H86.5486C86.6287 70.431 86.7094 70.431 86.7895 70.4385H87.0443L87.2667 70.4663C87.4196 70.4663 87.5586 70.5126 87.7023 70.5358C88.2768 70.647 88.8235 70.7953 89.3378 70.9435C89.8521 71.0918 90.32 71.2493 90.7277 71.4068C91.5339 71.6756 92.0621 71.8702 92.0621 71.8702C92.0621 71.8702 91.5108 71.7404 90.6721 71.5829C90.2552 71.5041 89.7733 71.4115 89.2498 71.3327C88.7262 71.2539 88.1749 71.1798 87.6281 71.152C87.4891 71.152 87.3548 71.152 87.2204 71.152H87.0258C86.961 71.152 86.9192 71.152 86.8637 71.152C86.6395 71.1747 86.4253 71.2562 86.2428 71.3883C85.8729 71.6395 85.5325 71.9317 85.2281 72.2594C84.9455 72.5466 84.7277 72.8061 84.5748 72.9914L84.3525 73.2787L83.4536 72.4262Z" fill="black"/>
<path d="M84.7 56.9467L84.2691 57.2942C83.9958 57.512 83.588 57.8224 83.134 58.2208C82.6799 58.6193 82.1332 59.0456 81.568 59.5367C81.2807 59.7776 80.9934 60.0417 80.6969 60.3012C80.4004 60.5606 80.1085 60.8386 79.8166 61.1073C78.6398 62.1961 77.5 63.3452 76.717 64.244C75.934 65.1428 75.4336 65.7869 75.4336 65.7869C75.4336 65.7869 75.8459 65.0965 76.5687 64.1235C77.2915 63.1506 78.3062 61.8903 79.3857 60.6857C79.6591 60.3892 79.9232 60.0834 80.1965 59.7961C80.4699 59.5089 80.734 59.2123 81.0027 58.9436C81.5448 58.3969 82.0081 57.8734 82.4714 57.4703C82.9347 57.0672 83.2683 56.6965 83.5232 56.451L83.9216 56.0664L84.7 56.9467Z" fill="black"/>
<path d="M74.9008 36.6208C75.1796 41.9987 74.8078 47.3907 73.7935 52.6795C74.2153 51.9661 74.7968 51.3602 75.4921 50.9092C76.1874 50.4583 76.9778 50.1745 77.8012 50.0802C80.2707 49.8161 82.6614 52.1142 83.6066 54.0694C83.5278 36.4493 74.8081 34.5497 74.9008 36.6208Z" fill="#FFD345"/>
<path d="M8.44692 94.5915C8.44692 94.5915 25.1265 88.9529 25.1265 79.1954C25.1265 64.0355 20.8593 50.261 13.2655 48.1205C9.3643 47.0178 5.25928 48.1205 5.25928 48.1205V94.5915H8.44692Z" fill="#E50B14"/>
<path d="M24.2552 67.8069C22.6567 57.6463 18.8667 49.705 13.2513 48.1205C9.35014 47.0178 5.24512 48.1205 5.24512 48.1205V50.3861C5.24512 50.3861 10.6474 48.7506 13.4505 50.3861C16.2536 52.0216 22.0173 57.5629 24.1579 67.8996L24.2552 67.8069Z" fill="#FA3740"/>
<path d="M64.8234 53.1613H64.703C64.5202 53.1429 64.3442 53.0828 64.1883 52.9856C64.0325 52.8884 63.9011 52.7567 63.8041 52.6007C62.3586 50.2841 59.2358 46.5358 56.998 46.4988H56.8682C55.0613 46.4988 52.6149 47.1335 50.2474 47.7451C48.0512 48.3103 45.9802 48.8478 44.4744 48.8478H44.3122C40.9624 48.7598 38.1223 45.637 38.0018 45.5026C37.8409 45.3291 37.7348 45.1118 37.697 44.8782C37.6592 44.6445 37.6914 44.4049 37.7895 44.1895C37.8875 43.974 38.0471 43.7924 38.2481 43.6675C38.4491 43.5425 38.6826 43.4798 38.9192 43.4872C39.0784 43.4856 39.2362 43.5172 39.3825 43.5798C40.5691 44.1309 41.8517 44.4457 43.1586 44.5065C45.0999 44.5065 46.6196 43.5103 48.3987 41.064C48.9496 40.2064 49.4403 39.3115 49.8675 38.386C51.6744 34.7721 54.1485 29.8285 58.5825 29.8285H58.6613C61.7841 29.8702 66.5702 33.2988 68.7107 38.3443C69.9431 41.2447 71.1941 46.9806 65.7223 52.7999C65.6058 52.9193 65.4657 53.0131 65.311 53.0754C65.1562 53.1376 64.9902 53.1669 64.8234 53.1613Z" fill="black"/>
<path d="M38.9189 44.6872C43.8996 46.7536 46.6054 45.5536 49.3715 41.7497C51.2525 39.1598 53.6386 30.9405 58.6379 31.01C63.6371 31.0795 74.1823 42.0185 64.8417 51.9613C64.8417 51.9613 60.7738 45.3544 57.0394 45.2895C53.305 45.2246 47.2309 47.708 44.363 47.6339C41.495 47.5598 38.9189 44.6872 38.9189 44.6872Z" fill="#484B63"/>
<path d="M51.0259 48.2872C51.0741 48.3526 51.116 48.4224 51.1509 48.4957C51.2204 48.6255 51.3131 48.8108 51.415 49.0378C51.6522 49.5832 51.8489 50.1453 52.0035 50.7197C52.16 51.2844 52.2807 51.8586 52.3648 52.4386C52.439 52.9019 52.4714 53.2262 52.4714 53.2262C52.4714 53.2262 52.388 52.9204 52.2444 52.4664C52.0718 51.917 51.866 51.3785 51.6282 50.854C51.395 50.3368 51.1256 49.8367 50.822 49.3575C50.6923 49.1675 50.5857 49.01 50.5069 48.8942C50.4282 48.7784 50.3865 48.7506 50.3818 48.7413L51.0259 48.2872Z" fill="black"/>
<path d="M33.6004 40.7165C30.7927 40.6146 28.6614 39.4146 28.0128 35.9443C27.3641 32.4741 30.8576 29.5829 34.4993 29.2771C37.3348 29.0362 40.4159 30.6671 41.3379 32.9096C44.3078 40.1513 36.334 40.8185 33.6004 40.7165Z" fill="white"/>
<g style="mix-blend-mode:multiply">
<path d="M28.0592 36.1575C28.68 33.5861 31.5387 31.5845 34.4993 31.3343C37.3348 31.0981 40.4159 32.7243 41.3379 34.9714C41.5857 35.5539 41.7705 36.1612 41.8893 36.783C42.1163 35.7683 41.9912 34.4988 41.3379 32.9143C40.4113 30.6672 37.3348 29.0409 34.4993 29.2818C30.8576 29.5876 27.3735 32.5251 28.0128 35.949C28.0267 36.0185 28.0453 36.0834 28.0592 36.1575Z" fill="#DBD1E8"/>
</g>
<path d="M28.013 35.9444L27.9435 35.7406L27.8648 35.4996C27.8257 35.3887 27.7993 35.2737 27.786 35.1568L27.7304 34.6935C27.7214 34.516 27.7214 34.3381 27.7304 34.1607C27.7611 33.7333 27.8564 33.3131 28.013 32.9143C28.1891 32.4305 28.429 31.9724 28.7265 31.5522C29.07 31.0889 29.4683 30.6688 29.9126 30.3012L30.2648 30.0186L30.6447 29.7637C30.9026 29.5912 31.172 29.4364 31.4509 29.3004C32.0205 29.0204 32.6206 28.8074 33.2393 28.6657C33.3968 28.6332 33.5543 28.5962 33.7026 28.5684L34.1659 28.5081L34.4022 28.4803H34.6524C34.8007 28.4803 34.9211 28.4803 35.1157 28.4803L35.6115 28.5081L36.0748 28.573C36.3742 28.6223 36.6699 28.6919 36.9598 28.7815C37.5075 28.94 38.0346 29.1624 38.5304 29.4441C38.9709 29.6932 39.3826 29.9899 39.7582 30.329C40.076 30.6038 40.3605 30.9148 40.6061 31.2556C40.792 31.5183 40.9474 31.8012 41.0694 32.0989C41.1204 32.2193 41.1667 32.3305 41.1991 32.4278L41.264 32.678L41.3103 32.8865L41.1806 32.7197L41.0277 32.5205L40.8007 32.2703C40.598 32.0536 40.3779 31.8537 40.1428 31.6726C39.8477 31.4443 39.5382 31.2354 39.2161 31.0471C38.8287 30.8424 38.4278 30.6644 38.0161 30.5143C37.5656 30.3461 37.1002 30.2204 36.6262 30.139C36.3796 30.0911 36.1306 30.0571 35.8802 30.0371L35.5003 30.0093H35.1435C35.037 30.0093 34.8702 30.0093 34.7312 30.0093H34.5505L34.3559 30.0371L33.9713 30.0881L33.5868 30.1761C33.0759 30.2829 32.5764 30.438 32.0949 30.6394C31.626 30.8409 31.1763 31.0844 30.7513 31.3668C30.3558 31.6511 29.9881 31.9723 29.6532 32.3259C29.3484 32.6266 29.0766 32.959 28.8424 33.3174C28.7291 33.4825 28.6314 33.6578 28.5505 33.841C28.466 33.9888 28.3946 34.1439 28.3374 34.3043L28.1891 34.7676L28.1057 35.1568C28.0679 35.3525 28.0446 35.5507 28.0362 35.7498L28.013 35.9444Z" fill="black"/>
<path d="M33.7904 40.2162C35.7735 40.2162 37.3812 37.9987 37.3812 35.2633C37.3812 32.5279 35.7735 30.3104 33.7904 30.3104C31.8073 30.3104 30.1997 32.5279 30.1997 35.2633C30.1997 37.9987 31.8073 40.2162 33.7904 40.2162Z" fill="black"/>
<path d="M33.0815 34.4432C33.8082 34.4432 34.3973 33.8541 34.3973 33.1274C34.3973 32.4006 33.8082 31.8115 33.0815 31.8115C32.3547 31.8115 31.7656 32.4006 31.7656 33.1274C31.7656 33.8541 32.3547 34.4432 33.0815 34.4432Z" fill="white"/>
<path d="M34.9624 47.3235C34.9845 47.1925 35.0186 47.0637 35.0643 46.9389C35.1836 46.6137 35.3391 46.3029 35.5277 46.0123C35.6553 45.8199 35.7929 45.6343 35.94 45.4563C36.1054 45.2582 36.2834 45.071 36.4728 44.8957C36.6735 44.7073 36.8838 44.5295 37.1029 44.3629C37.3346 44.2054 37.5663 44.0432 37.8165 43.8996C38.0615 43.7601 38.3136 43.6332 38.5717 43.5196C38.8196 43.4076 39.0732 43.3086 39.3315 43.2231C39.5863 43.149 39.8319 43.0795 40.0636 43.0239C40.2952 42.9683 40.5269 42.9405 40.74 42.9127C41.0778 42.8682 41.4188 42.8527 41.7593 42.8664C41.8874 42.8598 42.0158 42.8598 42.1439 42.8664C42.1439 42.8664 42.028 42.9498 41.8149 43.0749C41.6018 43.2 41.296 43.3482 40.9439 43.5382C40.7678 43.6355 40.5732 43.7328 40.374 43.8347C40.1748 43.9366 39.9663 44.0617 39.7439 44.1683C39.5215 44.2749 39.313 44.4138 39.086 44.525C38.8589 44.6362 38.6226 44.7799 38.4141 44.9003C38.2056 45.0208 37.9786 45.1691 37.7562 45.2895C37.5338 45.41 37.33 45.5536 37.1307 45.688C36.9315 45.8223 36.7369 45.9474 36.5562 46.0772C36.3755 46.2069 36.2041 46.332 36.0373 46.4478C35.8705 46.5637 35.7269 46.6702 35.6018 46.7722L35.2682 47.0409L34.9624 47.3235Z" fill="black"/>
<path d="M26.5859 43.436C26.733 42.1703 24.4415 40.8639 21.4677 40.5183C18.4939 40.1726 15.9638 40.9185 15.8167 42.1843C15.6696 43.4501 17.9611 44.7564 20.9349 45.1021C23.9087 45.4477 26.4388 44.7018 26.5859 43.436Z" fill="#FF878C"/>
<g style="mix-blend-mode:multiply">
<path d="M8.44666 94.5916C8.44666 94.5916 25.1262 88.9529 25.1262 79.1954C25.1355 75.4156 24.8536 71.6408 24.283 67.9043C23.8196 73.4919 23.537 79.6495 20.0714 82.3228C16.6057 84.9962 5.24512 85.6541 5.24512 85.6541V94.5916H8.44666Z" fill="#DBD1E8"/>
</g>
<path d="M77.6248 74.6826L77.2125 74.6317C76.9391 74.59 76.5406 74.5298 76.0403 74.4139C75.4322 74.2784 74.837 74.0909 74.2611 73.8533C73.8946 73.7072 73.5463 73.5191 73.2233 73.2927C72.8108 73.0268 72.4992 72.6304 72.3383 72.1668C72.3383 72.0973 72.3059 72.0278 72.292 71.9583V71.9352C72.292 71.9352 72.292 71.8935 72.292 71.8981V71.8332C72.2974 71.7767 72.3083 71.7209 72.3244 71.6664C72.3747 71.5244 72.4449 71.3902 72.5329 71.268C72.6753 71.0671 72.8301 70.8752 72.9962 70.6935C73.3252 70.3367 73.6866 70.0031 74.0526 69.6603C74.8069 68.9883 75.5028 68.2536 76.1329 67.4641C76.2627 67.2834 76.3785 67.0008 76.5962 66.746C76.814 66.4911 76.9901 66.2827 77.1986 66.0788C77.6119 65.664 78.0481 65.2727 78.5051 64.9066C79.4268 64.165 80.3956 63.484 81.4055 62.868C82.4254 62.2484 83.5002 61.7242 84.6163 61.302C85.1798 61.0887 85.7635 60.9335 86.3584 60.8386C86.6648 60.7897 86.9748 60.7664 87.285 60.7691H87.4009H87.526H87.7298L88.1932 60.834C89.2631 61.0481 90.2994 61.4049 91.2742 61.895C92.1366 62.3082 92.9736 62.7723 93.7808 63.285C94.9895 64.0224 96.1487 64.8381 97.2511 65.7267C97.6495 66.0464 97.946 66.3197 98.1453 66.5097C98.2476 66.605 98.3451 66.7055 98.4372 66.8108C98.3304 66.7217 98.2191 66.6382 98.1036 66.5606C97.8812 66.4031 97.543 66.19 97.1121 65.9213C96.2457 65.3931 94.9901 64.6657 93.4472 63.8873C92.6735 63.4981 91.8256 63.1043 90.9175 62.7382C89.9917 62.3398 89.0232 62.0491 88.031 61.8718L87.6789 61.8348H87.2989C87.05 61.8424 86.8021 61.8703 86.5576 61.9182C86.0366 62.0324 85.5254 62.1873 85.0287 62.3815C83.9875 62.7971 82.9845 63.3025 82.031 63.8919C81.065 64.4707 80.1365 65.1098 79.2511 65.8054C78.8155 66.1529 78.3847 66.505 77.9955 66.8711C77.8043 67.0443 77.6233 67.2284 77.4534 67.4224C77.3144 67.566 77.1939 67.807 76.9901 68.0711C76.6403 68.5175 76.2494 68.9301 75.8225 69.3035C75.424 69.6603 75.0256 69.9938 74.6457 70.3135C74.2657 70.6332 73.8951 70.9483 73.5569 71.2402C73.2186 71.5321 72.8665 71.8935 72.987 72.0047C73.0876 72.3416 73.2919 72.6383 73.5708 72.8525C73.842 73.0875 74.1388 73.2911 74.4557 73.4595C74.9874 73.7437 75.5386 73.9899 76.1051 74.1962C77.0596 74.539 77.6248 74.6826 77.6248 74.6826Z" fill="black"/>
<g style="mix-blend-mode:multiply">
<path d="M82.5639 44.9049C82.8233 53.8609 78.3384 61.8763 78.3384 61.8763C79.8598 60.0844 81.6072 58.4975 83.5368 57.1551C83.7824 51.9798 83.3515 47.9721 82.5639 44.9049Z" fill="#DBD1E8"/>
</g>
<path d="M44.3772 7.39001C26.0621 7.39001 15.7532 16.4989 12.8714 19.2001C9.98952 21.9012 5.24512 30.0093 5.24512 30.0093V32.8819C5.24512 32.8819 11.0691 22.6008 15.8135 18.8989C20.5579 15.197 29.5648 9.0904 45.6791 9.49349C61.7934 9.89658 68.6969 24.1112 68.6969 24.1112C68.7942 22.2024 62.6922 7.39001 44.3772 7.39001Z" fill="#FA3740"/>
<path d="M67.5431 47.9907C71.4721 39.3127 62.9609 31.0656 58.6196 31.01C53.6157 30.9405 51.2065 39.1598 49.3532 41.7497C48.9479 42.3104 48.5068 42.8443 48.0327 43.3482C48.0327 43.3482 50.7478 42.5466 52.7493 38.5111C54.7509 34.4756 57.2852 31.8439 59.0227 32.0246C60.7601 32.2053 69.7995 36.959 67.5431 47.9907Z" fill="#696D91"/>
<path d="M93.6466 29.8101C88.8281 31.2834 74.8311 26.0062 72.3663 18.6904C69.9014 11.3745 79.5709 7.32512 85.8396 12.0649C85.8396 12.0649 86.5856 6.50504 93.5817 6.8618C103.455 7.38999 97.6497 28.5823 93.6466 29.8101Z" fill="#FF2457"/>
<g style="mix-blend-mode:multiply">
<path d="M99.0212 14.9097C98.9888 15.1877 97.659 26.4139 92.8127 26.4046C81.883 26.4046 72.1254 15.4286 72.0652 15.3591C71.8826 16.4695 71.9863 17.608 72.3664 18.6672C74.8312 26.0062 88.8281 31.2834 93.6467 29.7869C96.0374 29.078 99.0675 21.2294 99.0212 14.9097Z" fill="#DBD1E8"/>
</g>
<path d="M86.9751 12.5282C87.9017 10.9252 92.0253 7.43172 94.9813 8.52515C97.9373 9.61859 97.8446 14.9282 97.2979 16.5962C97.2979 16.5962 97.0662 10.8603 93.5311 10.258C89.9959 9.65566 86.9751 12.5282 86.9751 12.5282Z" fill="#FFCCCC"/>
</g>
<defs>
<clipPath id="clip0">
<rect width="120" height="98.8911" fill="white" transform="translate(0 0.945068)"/>
</clipPath>
</defs>
</svg>
